<svg width="91" height="130" viewBox="0 0 91 130" fill="none" xmlns="http://www.w3.org/2000/svg">
<path d="M45.3333 75.5833C40.8194 75.5833 36.9826 74.0035 33.8229 70.8438C30.6632 67.684 29.0833 63.8472 29.0833 59.3333C29.0833 54.8194 30.6632 50.9826 33.8229 47.8229C36.9826 44.6632 40.8194 43.0833 45.3333 43.0833C49.8472 43.0833 53.684 44.6632 56.8437 47.8229C60.0035 50.9826 61.5833 54.8194 61.5833 59.3333C61.5833 63.8472 60.0035 67.684 56.8437 70.8438C53.684 74.0035 49.8472 75.5833 45.3333 75.5833ZM12.8333 129.75V87.9063C9.40278 84.1146 6.73958 79.7813 4.84375 74.9063C2.94792 70.0313 2 64.8403 2 59.3333C2 47.2361 6.19792 36.9896 14.5937 28.5938C22.9896 20.1979 33.2361 16 45.3333 16C57.4306 16 67.6771 20.1979 76.0729 28.5938C84.4687 36.9896 88.6667 47.2361 88.6667 59.3333C88.6667 64.8403 87.7187 70.0313 85.8229 74.9063C83.9271 79.7813 81.2639 84.1146 77.8333 87.9063V129.75L45.3333 118.917L12.8333 129.75ZM45.3333 91.8333C54.3611 91.8333 62.0347 88.6736 68.3542 82.3542C74.6736 76.0347 77.8333 68.3611 77.8333 59.3333C77.8333 50.3056 74.6736 42.6319 68.3542 36.3125C62.0347 29.9931 54.3611 26.8333 45.3333 26.8333C36.3056 26.8333 28.6319 29.9931 22.3125 36.3125C15.9931 42.6319 12.8333 50.3056 12.8333 59.3333C12.8333 68.3611 15.9931 76.0347 22.3125 82.3542C28.6319 88.6736 36.3056 91.8333 45.3333 91.8333ZM23.6667 113.635L45.3333 108.083L67 113.635V96.8438C63.8403 98.6493 60.4323 100.071 56.776 101.109C53.1198 102.148 49.3056 102.667 45.3333 102.667C41.3611 102.667 37.5469 102.148 33.8906 101.109C30.2344 100.071 26.8264 98.6493 23.6667 96.8438V113.635Z" fill="#404040"/>
</svg>
