<svg width="98" height="109" viewBox="0 0 98 109" fill="none" xmlns="http://www.w3.org/2000/svg">
<path d="M41.1667 81.5208L79.3542 43.3333L71.7708 35.75L41.1667 66.3542L25.7292 50.9167L18.1458 58.5L41.1667 81.5208ZM10.8333 108.333C7.85417 108.333 5.30382 107.273 3.18229 105.151C1.06076 103.03 0 100.479 0 97.5V21.6667C0 18.6875 1.06076 16.1372 3.18229 14.0156C5.30382 11.8941 7.85417 10.8333 10.8333 10.8333H33.5833C34.7569 7.58333 36.7205 4.96528 39.474 2.97917C42.2274 0.993056 45.3194 0 48.75 0C52.1806 0 55.2726 0.993056 58.026 2.97917C60.7795 4.96528 62.7431 7.58333 63.9167 10.8333H86.6667C89.6458 10.8333 92.1962 11.8941 94.3177 14.0156C96.4392 16.1372 97.5 18.6875 97.5 21.6667V97.5C97.5 100.479 96.4392 103.03 94.3177 105.151C92.1962 107.273 89.6458 108.333 86.6667 108.333H10.8333ZM10.8333 97.5H86.6667V21.6667H10.8333V97.5ZM48.75 17.6042C49.9236 17.6042 50.8941 17.2205 51.6615 16.4531C52.4288 15.6858 52.8125 14.7153 52.8125 13.5417C52.8125 12.3681 52.4288 11.3976 51.6615 10.6302C50.8941 9.86285 49.9236 9.47917 48.75 9.47917C47.5764 9.47917 46.6059 9.86285 45.8385 10.6302C45.0712 11.3976 44.6875 12.3681 44.6875 13.5417C44.6875 14.7153 45.0712 15.6858 45.8385 16.4531C46.6059 17.2205 47.5764 17.6042 48.75 17.6042Z" fill="#404040"/>
</svg>
