<svg width="109" height="109" viewBox="0 0 109 109" fill="none" xmlns="http://www.w3.org/2000/svg">
<path d="M54.1667 108.333C46.6736 108.333 39.6319 106.911 33.0417 104.068C26.4514 101.224 20.7188 97.3646 15.8438 92.4896C10.9688 87.6146 7.10938 81.882 4.26562 75.2917C1.42188 68.7014 0 61.6597 0 54.1667C0 46.6736 1.42188 39.6319 4.26562 33.0417C7.10938 26.4514 10.9688 20.7188 15.8438 15.8438C20.7188 10.9688 26.4514 7.10938 33.0417 4.26562C39.6319 1.42188 46.6736 0 54.1667 0C61.6597 0 68.7014 1.42188 75.2917 4.26562C81.882 7.10938 87.6146 10.9688 92.4896 15.8438C97.3646 20.7188 101.224 26.4514 104.068 33.0417C106.911 39.6319 108.333 46.6736 108.333 54.1667C108.333 61.6597 106.911 68.7014 104.068 75.2917C101.224 81.882 97.3646 87.6146 92.4896 92.4896C87.6146 97.3646 81.882 101.224 75.2917 104.068C68.7014 106.911 61.6597 108.333 54.1667 108.333ZM48.75 97.2292V86.6667C45.7708 86.6667 43.2205 85.6059 41.099 83.4844C38.9774 81.3628 37.9167 78.8125 37.9167 75.8333V70.4167L11.9167 44.4167C11.6458 46.0417 11.3976 47.6667 11.1719 49.2917C10.9462 50.9167 10.8333 52.5417 10.8333 54.1667C10.8333 65.0903 14.4219 74.6597 21.599 82.875C28.776 91.0903 37.8264 95.875 48.75 97.2292ZM86.125 83.4167C89.8264 79.3542 92.6476 74.8177 94.5885 69.8073C96.5295 64.7969 97.5 59.5833 97.5 54.1667C97.5 45.3194 95.0399 37.2396 90.1198 29.9271C85.1997 22.6146 78.632 17.3333 70.4167 14.0833V16.25C70.4167 19.2292 69.3559 21.7795 67.2344 23.901C65.1128 26.0226 62.5625 27.0833 59.5833 27.0833H48.75V37.9167C48.75 39.4514 48.2309 40.7379 47.1927 41.776C46.1545 42.8142 44.8681 43.3333 43.3333 43.3333H32.5V54.1667H65C66.5347 54.1667 67.8212 54.6858 68.8594 55.724C69.8976 56.7622 70.4167 58.0486 70.4167 59.5833V75.8333H75.8333C78.1806 75.8333 80.3021 76.533 82.1979 77.9323C84.0938 79.3316 85.4028 81.1597 86.125 83.4167Z" fill="#404040"/>
</svg>
