<svg width="109" height="109" viewBox="0 0 109 109" fill="none" xmlns="http://www.w3.org/2000/svg">
<path d="M32.5 75.8333H97.5V21.6667H32.5V75.8333ZM32.5 86.6667C29.5208 86.6667 26.9705 85.6059 24.849 83.4844C22.7274 81.3628 21.6667 78.8125 21.6667 75.8333V10.8333C21.6667 7.85417 22.7274 5.30382 24.849 3.18229C26.9705 1.06076 29.5208 0 32.5 0H97.5C100.479 0 103.03 1.06076 105.151 3.18229C107.273 5.30382 108.333 7.85417 108.333 10.8333V75.8333C108.333 78.8125 107.273 81.3628 105.151 83.4844C103.03 85.6059 100.479 86.6667 97.5 86.6667H32.5ZM10.8333 108.333C7.85417 108.333 5.30382 107.273 3.18229 105.151C1.06076 103.03 0 100.479 0 97.5V21.6667H10.8333V97.5H86.6667V108.333H10.8333Z" fill="#404040"/>
</svg>
