<svg width="102" height="102" viewBox="0 0 102 102" fill="none" xmlns="http://www.w3.org/2000/svg">
<path d="M46.75 82.5563V53.4438L21.25 38.675V67.7875L46.75 82.5563ZM55.25 82.5563L80.75 67.7875V38.675L55.25 53.4438V82.5563ZM51 46.1125L76.1813 31.5563L51 17L25.8188 31.5563L51 46.1125ZM17 75.225C15.6542 74.4458 14.6094 73.4188 13.8656 72.1438C13.1219 70.8688 12.75 69.4521 12.75 67.8938V34.1063C12.75 32.5479 13.1219 31.1313 13.8656 29.8563C14.6094 28.5813 15.6542 27.5542 17 26.775L46.75 9.66875C48.0958 8.88958 49.5125 8.5 51 8.5C52.4875 8.5 53.9042 8.88958 55.25 9.66875L85 26.775C86.3458 27.5542 87.3906 28.5813 88.1344 29.8563C88.8781 31.1313 89.25 32.5479 89.25 34.1063V67.8938C89.25 69.4521 88.8781 70.8688 88.1344 72.1438C87.3906 73.4188 86.3458 74.4458 85 75.225L55.25 92.3313C53.9042 93.1104 52.4875 93.5 51 93.5C49.5125 93.5 48.0958 93.1104 46.75 92.3313L17 75.225Z" fill="#404040"/>
</svg>
